<svg xmlns="http://www.w3.org/2000/svg" width="350" height="218" viewBox="0 0 350 218">
  <defs>
    <mask id="bar-mask">
      <rect x="25" y="50" width="300" height="8" rx="4" fill="white"/>
    </mask>
  </defs>
  <rect x="0.5" y="0.5" width="349" height="217" rx="4.5" fill="#0d1117" stroke="#30363d"/>
  <text x="25" y="35" fill="#58a6ff" font-size="18" font-weight="bold" font-family="'Segoe UI', Ubuntu, 'Helvetica Neue', Sans-Serif">Most Used Languages</text>
  <rect x="25" y="50" width="116.61417471690265" height="8" fill="#fcb32c" rx="4" ry="4" mask="url(#bar-mask)"/><rect x="141.61417471690265" y="50" width="64.47019679754996" height="8" fill="#dea584" rx="0" ry="0" mask="url(#bar-mask)"/><rect x="206.0843715144526" y="50" width="57.988921867024594" height="8" fill="#00ADD8" rx="0" ry="0" mask="url(#bar-mask)"/><rect x="264.0732933814772" y="50" width="25.06304705370815" height="8" fill="#3178c6" rx="0" ry="0" mask="url(#bar-mask)"/><rect x="289.13634043518533" y="50" width="22.96689793372025" height="8" fill="#ff5a03" rx="0" ry="0" mask="url(#bar-mask)"/><rect x="312.1032383689056" y="50" width="5.717904607066563" height="8" fill="#f1e05a" rx="0" ry="0" mask="url(#bar-mask)"/><rect x="317.8211429759721" y="50" width="2.8549823241393653" height="8" fill="#89e051" rx="0" ry="0" mask="url(#bar-mask)"/><rect x="320.6761253001115" y="50" width="2.004272454014405" height="8" fill="#663399" rx="0" ry="0" mask="url(#bar-mask)"/><rect x="322.6803977541259" y="50" width="2.3196022458740573" height="8" fill="#858585" rx="0" ry="0" mask="url(#bar-mask)"/>
  
      <g transform="translate(25, 82)">
        <circle cx="5" cy="-4" r="5" fill="#fcb32c"/>
        <text x="16" y="0" fill="#c9d1d9" font-size="12" font-family="'Segoe UI', Ubuntu, 'Helvetica Neue', Sans-Serif">MDX <tspan fill="#8b949e">38.9%</tspan></text>
      </g>
      <g transform="translate(175, 82)">
        <circle cx="5" cy="-4" r="5" fill="#dea584"/>
        <text x="16" y="0" fill="#c9d1d9" font-size="12" font-family="'Segoe UI', Ubuntu, 'Helvetica Neue', Sans-Serif">Rust <tspan fill="#8b949e">21.5%</tspan></text>
      </g>
      <g transform="translate(25, 106)">
        <circle cx="5" cy="-4" r="5" fill="#00ADD8"/>
        <text x="16" y="0" fill="#c9d1d9" font-size="12" font-family="'Segoe UI', Ubuntu, 'Helvetica Neue', Sans-Serif">Go <tspan fill="#8b949e">19.3%</tspan></text>
      </g>
      <g transform="translate(175, 106)">
        <circle cx="5" cy="-4" r="5" fill="#3178c6"/>
        <text x="16" y="0" fill="#c9d1d9" font-size="12" font-family="'Segoe UI', Ubuntu, 'Helvetica Neue', Sans-Serif">TypeScript <tspan fill="#8b949e">8.4%</tspan></text>
      </g>
      <g transform="translate(25, 130)">
        <circle cx="5" cy="-4" r="5" fill="#ff5a03"/>
        <text x="16" y="0" fill="#c9d1d9" font-size="12" font-family="'Segoe UI', Ubuntu, 'Helvetica Neue', Sans-Serif">Astro <tspan fill="#8b949e">7.7%</tspan></text>
      </g>
      <g transform="translate(175, 130)">
        <circle cx="5" cy="-4" r="5" fill="#f1e05a"/>
        <text x="16" y="0" fill="#c9d1d9" font-size="12" font-family="'Segoe UI', Ubuntu, 'Helvetica Neue', Sans-Serif">JavaScript <tspan fill="#8b949e">1.9%</tspan></text>
      </g>
      <g transform="translate(25, 154)">
        <circle cx="5" cy="-4" r="5" fill="#89e051"/>
        <text x="16" y="0" fill="#c9d1d9" font-size="12" font-family="'Segoe UI', Ubuntu, 'Helvetica Neue', Sans-Serif">Shell <tspan fill="#8b949e">1.0%</tspan></text>
      </g>
      <g transform="translate(175, 154)">
        <circle cx="5" cy="-4" r="5" fill="#663399"/>
        <text x="16" y="0" fill="#c9d1d9" font-size="12" font-family="'Segoe UI', Ubuntu, 'Helvetica Neue', Sans-Serif">CSS <tspan fill="#8b949e">0.7%</tspan></text>
      </g>
      <g transform="translate(25, 178)">
        <circle cx="5" cy="-4" r="5" fill="#858585"/>
        <text x="16" y="0" fill="#c9d1d9" font-size="12" font-family="'Segoe UI', Ubuntu, 'Helvetica Neue', Sans-Serif">Other <tspan fill="#8b949e">0.8%</tspan></text>
      </g>
</svg>